<mxfile host="Electron" modified="2024-02-25T19:02:58.945Z" agent="Mozilla/5.0 (Windows NT 10.0; Win64; x64) AppleWebKit/537.36 (KHTML, like Gecko) draw.io/21.4.0 Chrome/112.0.5615.204 Electron/24.5.1 Safari/537.36" etag="TdLEltOAINEJ50tQgy-R" version="21.4.0" type="device">
  <diagram name="STARTUP SEQUENCE" id="Jkb864FAoGRS3MeYXZku">
    <mxGraphModel dx="1833" dy="1100" grid="0" gridSize="10" guides="1" tooltips="1" connect="1" arrows="1" fold="1" page="0" pageScale="1" pageWidth="827" pageHeight="1169" math="0" shadow="0">
      <root>
        <mxCell id="0" />
        <mxCell id="1" parent="0" />
        <mxCell id="RxQwD5f8Y6BnTJ-7wG8--24" style="edgeStyle=orthogonalEdgeStyle;rounded=0;orthogonalLoop=1;jettySize=auto;html=1;exitX=0.5;exitY=1;exitDx=0;exitDy=0;" edge="1" parent="1" source="RxQwD5f8Y6BnTJ-7wG8--3" target="RxQwD5f8Y6BnTJ-7wG8--22">
          <mxGeometry relative="1" as="geometry" />
        </mxCell>
        <mxCell id="RxQwD5f8Y6BnTJ-7wG8--3" value="START" style="ellipse;whiteSpace=wrap;html=1;fillColor=#008a00;fontColor=#ffffff;strokeColor=#005700;fontSize=13;" vertex="1" parent="1">
          <mxGeometry x="556" y="75" width="120" height="80" as="geometry" />
        </mxCell>
        <mxCell id="RxQwD5f8Y6BnTJ-7wG8--9" style="edgeStyle=orthogonalEdgeStyle;rounded=0;orthogonalLoop=1;jettySize=auto;html=1;exitX=1;exitY=0.5;exitDx=0;exitDy=0;entryX=0.5;entryY=0;entryDx=0;entryDy=0;" edge="1" parent="1" source="RxQwD5f8Y6BnTJ-7wG8--5" target="RxQwD5f8Y6BnTJ-7wG8--7">
          <mxGeometry relative="1" as="geometry" />
        </mxCell>
        <mxCell id="RxQwD5f8Y6BnTJ-7wG8--10" style="edgeStyle=orthogonalEdgeStyle;rounded=0;orthogonalLoop=1;jettySize=auto;html=1;exitX=0;exitY=0.5;exitDx=0;exitDy=0;" edge="1" parent="1" source="RxQwD5f8Y6BnTJ-7wG8--5" target="RxQwD5f8Y6BnTJ-7wG8--8">
          <mxGeometry relative="1" as="geometry" />
        </mxCell>
        <mxCell id="RxQwD5f8Y6BnTJ-7wG8--5" value="Is First Start ?" style="rhombus;whiteSpace=wrap;html=1;" vertex="1" parent="1">
          <mxGeometry x="453" y="668" width="204" height="87" as="geometry" />
        </mxCell>
        <mxCell id="RxQwD5f8Y6BnTJ-7wG8--13" value="" style="group;fontSize=15;" vertex="1" connectable="0" parent="1">
          <mxGeometry x="844" y="734" width="122" height="90" as="geometry" />
        </mxCell>
        <mxCell id="RxQwD5f8Y6BnTJ-7wG8--7" value="" style="shape=parallelogram;perimeter=parallelogramPerimeter;whiteSpace=wrap;html=1;fixedSize=1;" vertex="1" parent="RxQwD5f8Y6BnTJ-7wG8--13">
          <mxGeometry y="30" width="120" height="60" as="geometry" />
        </mxCell>
        <mxCell id="RxQwD5f8Y6BnTJ-7wG8--11" value="NO" style="text;html=1;strokeColor=none;fillColor=none;align=center;verticalAlign=middle;whiteSpace=wrap;rounded=0;fontSize=17;" vertex="1" parent="RxQwD5f8Y6BnTJ-7wG8--13">
          <mxGeometry x="62" width="60" height="30" as="geometry" />
        </mxCell>
        <mxCell id="RxQwD5f8Y6BnTJ-7wG8--15" value="" style="group" vertex="1" connectable="0" parent="1">
          <mxGeometry x="94" y="740" width="344" height="99" as="geometry" />
        </mxCell>
        <mxCell id="RxQwD5f8Y6BnTJ-7wG8--8" value="Create Configuration File and Program Directory&amp;nbsp; - My Documents" style="shape=parallelogram;perimeter=parallelogramPerimeter;whiteSpace=wrap;html=1;fixedSize=1;fillColor=#60a917;fontColor=#ffffff;strokeColor=#2D7600;" vertex="1" parent="RxQwD5f8Y6BnTJ-7wG8--15">
          <mxGeometry y="34.43478260869565" width="344" height="64.56521739130434" as="geometry" />
        </mxCell>
        <mxCell id="RxQwD5f8Y6BnTJ-7wG8--14" value="YES" style="text;html=1;strokeColor=none;fillColor=none;align=center;verticalAlign=middle;whiteSpace=wrap;rounded=0;fontSize=14;" vertex="1" parent="RxQwD5f8Y6BnTJ-7wG8--15">
          <mxGeometry width="172" height="32.28260869565217" as="geometry" />
        </mxCell>
        <mxCell id="RxQwD5f8Y6BnTJ-7wG8--19" style="edgeStyle=orthogonalEdgeStyle;rounded=0;orthogonalLoop=1;jettySize=auto;html=1;exitX=0.5;exitY=1;exitDx=0;exitDy=0;" edge="1" parent="1" source="RxQwD5f8Y6BnTJ-7wG8--16" target="RxQwD5f8Y6BnTJ-7wG8--18">
          <mxGeometry relative="1" as="geometry" />
        </mxCell>
        <mxCell id="RxQwD5f8Y6BnTJ-7wG8--16" value="Initialize and Create Database" style="shape=parallelogram;perimeter=parallelogramPerimeter;whiteSpace=wrap;html=1;fixedSize=1;fillColor=#60a917;fontColor=#ffffff;strokeColor=#2D7600;" vertex="1" parent="1">
          <mxGeometry x="136" y="886" width="260" height="70" as="geometry" />
        </mxCell>
        <mxCell id="RxQwD5f8Y6BnTJ-7wG8--17" style="edgeStyle=orthogonalEdgeStyle;rounded=0;orthogonalLoop=1;jettySize=auto;html=1;exitX=0.5;exitY=1;exitDx=0;exitDy=0;" edge="1" parent="1" source="RxQwD5f8Y6BnTJ-7wG8--8" target="RxQwD5f8Y6BnTJ-7wG8--16">
          <mxGeometry relative="1" as="geometry" />
        </mxCell>
        <mxCell id="RxQwD5f8Y6BnTJ-7wG8--21" style="edgeStyle=orthogonalEdgeStyle;rounded=0;orthogonalLoop=1;jettySize=auto;html=1;exitX=0.5;exitY=1;exitDx=0;exitDy=0;" edge="1" parent="1" source="RxQwD5f8Y6BnTJ-7wG8--18" target="RxQwD5f8Y6BnTJ-7wG8--20">
          <mxGeometry relative="1" as="geometry" />
        </mxCell>
        <mxCell id="RxQwD5f8Y6BnTJ-7wG8--18" value="Load Registration Window" style="rounded=0;whiteSpace=wrap;html=1;fillColor=#d80073;fontColor=#ffffff;strokeColor=#A50040;" vertex="1" parent="1">
          <mxGeometry x="177.5" y="1008" width="177" height="80" as="geometry" />
        </mxCell>
        <mxCell id="RxQwD5f8Y6BnTJ-7wG8--20" value="Prompt Enter Correct Registration Details" style="shape=parallelogram;perimeter=parallelogramPerimeter;whiteSpace=wrap;html=1;fixedSize=1;" vertex="1" parent="1">
          <mxGeometry x="111.5" y="1129" width="309" height="60" as="geometry" />
        </mxCell>
        <mxCell id="RxQwD5f8Y6BnTJ-7wG8--25" style="edgeStyle=orthogonalEdgeStyle;rounded=0;orthogonalLoop=1;jettySize=auto;html=1;exitX=0.5;exitY=1;exitDx=0;exitDy=0;" edge="1" parent="1" source="RxQwD5f8Y6BnTJ-7wG8--22" target="RxQwD5f8Y6BnTJ-7wG8--23">
          <mxGeometry relative="1" as="geometry" />
        </mxCell>
        <mxCell id="RxQwD5f8Y6BnTJ-7wG8--22" value="Test for Shaped Window Ability" style="rounded=0;whiteSpace=wrap;html=1;fillColor=#d80073;fontColor=#ffffff;strokeColor=#A50040;" vertex="1" parent="1">
          <mxGeometry x="514" y="237" width="205" height="44" as="geometry" />
        </mxCell>
        <mxCell id="RxQwD5f8Y6BnTJ-7wG8--23" value="Test for Window Translucency" style="rounded=0;whiteSpace=wrap;html=1;fillColor=#d80073;fontColor=#ffffff;strokeColor=#A50040;" vertex="1" parent="1">
          <mxGeometry x="495.5" y="314" width="241" height="55" as="geometry" />
        </mxCell>
        <mxCell id="RxQwD5f8Y6BnTJ-7wG8--27" style="edgeStyle=orthogonalEdgeStyle;rounded=0;orthogonalLoop=1;jettySize=auto;html=1;exitX=0.5;exitY=1;exitDx=0;exitDy=0;" edge="1" parent="1" source="RxQwD5f8Y6BnTJ-7wG8--26" target="RxQwD5f8Y6BnTJ-7wG8--5">
          <mxGeometry relative="1" as="geometry" />
        </mxCell>
        <mxCell id="RxQwD5f8Y6BnTJ-7wG8--26" value="DISPLAY SPLASH SCREEN" style="rounded=0;whiteSpace=wrap;html=1;fillColor=#fa6800;fontColor=#000000;strokeColor=#C73500;" vertex="1" parent="1">
          <mxGeometry x="479" y="519" width="120" height="60" as="geometry" />
        </mxCell>
      </root>
    </mxGraphModel>
  </diagram>
</mxfile>
